PathFileType	4	(X/Y/Z)	Kaydara	
DataRate	CameraRate	NumFrames	NumMarkers	Units	OrigDataRate	OrigDataStartFrame	OrigNumFrames	
60.00	60.00	4	74	mm	60.00	647	134	
Frame#	Time	Z_lasi			Z_rasi			Z_rpsi			Z_lpsi			Z_fneck			Z_bneck			Z_fhead			Z_lhead			Z_rshld			Z_relbtop			Z_relbext			Z_relblow			Z_rwrext			Z_rwrtop			Z_rwrlow			Z_lshld			Z_lelbext			Z_lelblow			Z_lelbtop			Z_lwrext			Z_lwrtop			Z_lwrlow			Z_rtopleg			Z_rkneefr			Z_rkneebk			Z_rkneeis			Z_lkneefr			Z_lknssbk			Z_lkneeis			Z_rankfr			Z_rankis			Z_rankbk			Z_lankfr			Z_lankbk			Z_lankis			Z_rhead			Z_ltopleg			N_rpsi			N_lpsi			N_fneck			N_bneck			N_fhead			N_rhead			N_lhead			N_rshld			N_relbtop			N_relbext			N_relblow			N_rwrext			N_rwrtop			N_rwrlow			N_lshld			N_lelbext			N_lelblow			N_lelbtop			N_lwrext			N_lwrtop			N_lwrlow			N_rtopleg			N_ltopleg			N_rkneefr			N_rkneebk			N_rkneeis			N_lkneefr			N_lknssbk			N_lkneeis			N_rankfr			N_rankis			N_rankbk			N_lankfr			N_lankbk			N_lankis			N_lasi			N_rasi			
		X1	Y1	Z1	X2	Y2	Z2	X3	Y3	Z3	X4	Y4	Z4	X5	Y5	Z5	X6	Y6	Z6	X7	Y7	Z7	X8	Y8	Z8	X9	Y9	Z9	X10	Y10	Z10	X11	Y11	Z11	X12	Y12	Z12	X13	Y13	Z13	X14	Y14	Z14	X15	Y15	Z15	X16	Y16	Z16	X17	Y17	Z17	X18	Y18	Z18	X19	Y19	Z19	X20	Y20	Z20	X21	Y21	Z21	X22	Y22	Z22	X23	Y23	Z23	X24	Y24	Z24	X25	Y25	Z25	X26	Y26	Z26	X27	Y27	Z27	X28	Y28	Z28	X29	Y29	Z29	X30	Y30	Z30	X31	Y31	Z31	X32	Y32	Z32	X33	Y33	Z33	X34	Y34	Z34	X35	Y35	Z35	X36	Y36	Z36	X37	Y37	Z37	X38	Y38	Z38	X39	Y39	Z39	X40	Y40	Z40	X41	Y41	Z41	X42	Y42	Z42	X43	Y43	Z43	X44	Y44	Z44	X45	Y45	Z45	X46	Y46	Z46	X47	Y47	Z47	X48	Y48	Z48	X49	Y49	Z49	X50	Y50	Z50	X51	Y51	Z51	X52	Y52	Z52	X53	Y53	Z53	X54	Y54	Z54	X55	Y55	Z55	X56	Y56	Z56	X57	Y57	Z57	X58	Y58	Z58	X59	Y59	Z59	X60	Y60	Z60	X61	Y61	Z61	X62	Y62	Z62	X63	Y63	Z63	X64	Y64	Z64	X65	Y65	Z65	X66	Y66	Z66	X67	Y67	Z67	X68	Y68	Z68	X69	Y69	Z69	X70	Y70	Z70	X71	Y71	Z71	X72	Y72	Z72	X73	Y73	Z73	X74	Y74	Z74	

17	10.767	-1265.10597	965.97961	532.84039	-1139.10522	985.51979	735.51147	-1324.14093	1030.86426	808.54263	-1424.11774	1019.50562	640.66551	-1210.69313	1447.26410	608.69118	-1307.17865	1502.05246	661.80710	-1111.10291	1620.27878	616.95122	-1280.88318	1619.26910	710.19882	-1116.45737	1401.28998	797.53944	-928.22525	1232.04124	768.50182	-952.30103	1164.06189	753.88695	-940.00008	1226.16867	690.83626	-723.01880	1151.35292	606.38466	-695.32349	1174.00291	635.95337	-703.31284	1217.11182	618.43853	-1420.92484	1390.97382	504.31499	-1435.24002	1073.00308	537.95799	-1467.21024	1106.34995	452.77580	-1506.46759	1086.14891	522.08855	-1515.12543	878.16086	430.38109	-1487.61505	888.35991	399.67430	-1450.80231	876.30806	423.00728	-1165.90477	882.41165	826.51611	-1081.15555	418.14823	707.33910	-1120.80032	437.69955	784.87000	-1176.76125	426.26823	683.51730	-1384.10797	410.72437	507.68208	-1456.76407	459.41322	497.51904	-1402.69867	442.10644	611.87042	-1095.19936	157.74523	718.85521	-1173.93166	150.09290	697.64832	-1153.22281	143.03728	765.96970	-1575.20889	205.02499	540.15503	-1566.03333	203.14583	606.26625	-1503.17566	183.54485	569.68254	-1295.49194	1618.14896	581.21056	-1296.98563	926.98814	553.11516	390.19558	1054.33311	340.03822	360.73200	1057.71103	578.23242	127.27808	1460.81680	399.34036	238.38070	1538.63968	352.57019	20.81781	1689.61273	338.71216	169.39445	1636.86432	262.51444	168.82893	1683.68240	414.43954	180.33360	1423.85223	194.13509	-9.34442	1203.82126	199.15300	19.24039	1175.60631	270.68913	-28.75713	1255.26657	247.99568	-238.25029	1163.17520	342.90138	-248.03316	1214.19571	336.83689	-228.81054	1233.38539	373.40816	228.87835	1491.86737	615.59307	362.07355	1199.04114	707.49985	279.86240	1258.44162	649.53995	282.74868	1239.67789	742.56409	117.61058	1178.30566	594.92901	102.51789	1228.58902	603.91167	131.34729	1247.41516	571.11092	308.23553	880.63118	254.52444	205.97443	884.56902	646.28494	262.63035	435.99403	318.11878	370.89058	483.15006	330.32600	309.39907	454.51015	423.87478	22.51487	463.45295	504.55669	116.62550	470.38681	451.78299	105.45662	472.33047	568.09174	344.24080	144.91484	343.27148	370.36201	151.25371	410.69321	411.59317	149.00752	342.65633	36.57470	141.00568	515.88726	104.99255	140.27590	447.51461	32.37417	153.31125	444.87541	150.91573	996.43608	562.25731	148.16745	979.98253	334.66618 
18	10.783	-1255.54413	968.21426	537.46941	-1127.40036	985.83344	738.82294	-1310.97061	1032.73300	813.54530	-1413.69949	1021.04759	647.39456	-1197.96219	1448.50540	612.60044	-1294.01871	1503.66364	666.50040	-1097.80930	1621.28601	621.20361	-1267.55295	1620.32013	714.91333	-1102.07443	1402.29568	800.04784	-915.74181	1230.87326	770.14130	-940.63751	1163.43925	755.75577	-927.93961	1225.24353	692.74506	-712.13188	1146.99707	607.40917	-684.03168	1169.30206	636.92688	-691.58752	1212.60048	619.16908	-1409.01215	1393.20297	509.50733	-1423.38959	1075.49118	544.86198	-1457.13547	1108.43819	459.77333	-1494.25171	1088.14247	530.08644	-1505.28870	880.10826	439.05102	-1478.79425	890.29579	407.40864	-1441.33286	878.13957	429.59110	-1155.39482	882.61642	829.93179	-1077.34581	417.77340	708.89626	-1116.60667	437.67384	786.61774	-1172.73788	426.96339	685.43694	-1367.27539	412.77325	501.30482	-1439.29443	462.17312	490.21851	-1387.74185	443.94485	605.58334	-1094.28482	157.42513	719.29436	-1173.00888	150.66705	698.18504	-1152.05231	142.92292	766.39763	-1563.06076	210.41212	536.45817	-1554.23035	209.69116	602.46059	-1491.67374	188.23982	566.86497	-1282.30713	1619.59290	585.92831	-1294.74380	927.04689	554.32587	381.91200	1053.48160	338.54488	354.07940	1056.48842	576.97708	115.91202	1460.42496	401.03188	226.27420	1538.17978	353.24806	14.88662	1692.44324	339.04671	161.66090	1633.69568	263.90575	162.08317	1681.64078	415.92468	166.55972	1422.36313	195.84255	-22.98049	1202.47444	204.32455	6.82300	1174.60083	275.83622	-41.60326	1253.75671	253.59659	-250.60379	1160.79918	349.30363	-260.65699	1211.89316	343.20351	-241.35595	1230.86731	379.82777	221.50663	1490.35049	616.19671	358.20511	1198.38120	704.75288	276.27167	1257.28775	647.70370	279.43573	1238.03001	741.63879	112.54011	1175.86624	596.04633	97.41605	1226.14075	605.72292	126.36319	1244.89250	572.84981	299.94192	879.32236	253.89500	199.58929	883.14392	645.25452	257.02911	434.28909	317.58608	364.91806	482.78477	329.31152	303.81353	453.62663	423.41850	18.29415	460.82191	503.52634	111.80148	468.44517	449.77741	101.68498	469.99195	566.27113	342.96558	144.26561	343.38127	368.96152	151.10774	410.75645	410.12436	149.37445	342.52655	34.32566	138.58262	512.96059	102.51692	138.45917	443.89099	29.67516	150.85683	442.08317	143.97838	995.28625	562.45003	139.76695	978.95271	335.09476 
19	10.800	-1246.53900	970.17570	541.39053	-1116.47408	986.14922	741.76292	-1299.10538	1034.55902	818.24074	-1404.01169	1022.54471	653.59825	-1185.01015	1449.68491	616.06209	-1281.05164	1505.17975	670.78918	-1084.75548	1622.28836	624.85065	-1254.05563	1621.27899	719.06471	-1088.26096	1403.31390	802.63115	-903.02917	1230.09857	771.28304	-928.72406	1163.00156	757.16209	-915.57045	1224.54811	693.95248	-701.32370	1141.99905	607.87811	-672.61757	1164.78249	637.36198	-679.68742	1208.06648	619.29924	-1397.57736	1395.26047	514.77051	-1411.82358	1077.63657	551.43059	-1446.49460	1110.24231	466.40888	-1482.63000	1090.02701	537.30816	-1494.57794	881.90079	446.67202	-1469.01779	892.16705	414.39671	-1431.11771	880.17281	435.66505	-1145.87982	882.82562	833.24181	-1074.14314	417.41516	710.75706	-1112.62840	437.46407	789.01299	-1169.40277	427.77412	687.81281	-1349.87656	415.08251	494.57016	-1421.68533	464.99325	483.54641	-1371.92047	446.10466	598.60310	-1093.59856	157.13568	719.83566	-1172.37152	151.27123	698.96980	-1151.15219	142.91024	767.11754	-1549.07288	215.24036	533.29845	-1540.38376	215.60898	599.29119	-1478.33023	192.63182	564.57394	-1269.33434	1621.04492	590.13954	-1292.50168	927.10556	555.53658	373.20450	1052.27097	337.25552	346.82034	1055.16983	575.44827	104.43159	1460.41214	403.09982	214.05333	1538.09891	354.30248	8.78838	1695.13458	340.08636	153.96992	1630.98099	265.47348	155.80929	1679.89151	417.34169	152.66016	1420.74310	197.84107	-37.13654	1201.26640	210.02794	-6.14162	1173.82393	281.45378	-55.02388	1252.56493	259.60651	-263.82372	1158.63945	355.58205	-273.84222	1209.71611	349.91203	-254.60667	1228.67348	386.48102	214.29432	1488.76465	617.00459	353.69324	1197.30728	702.09091	271.98902	1255.98862	646.15799	275.38227	1236.50551	741.20911	106.97099	1173.62480	597.37335	91.54289	1223.57132	607.48672	119.87602	1242.53830	574.20502	290.89975	877.64038	253.27379	193.03930	881.42433	644.36028	249.67369	431.91319	316.82001	356.89175	482.01515	328.06423	296.38016	452.19242	422.44038	14.02828	457.60162	502.62341	107.33690	466.18698	448.40416	97.94464	467.59293	564.97677	341.23165	143.41706	343.34621	367.21760	150.91278	410.59254	408.19454	149.76513	342.35195	33.42505	135.71193	511.09104	101.92208	136.02127	442.84885	29.01613	147.62848	440.26882	136.73993	993.88504	562.92881	131.11566	977.50511	335.56629 
20	10.817	-1238.42346	972.11472	545.12897	-1106.52122	986.55495	744.53949	-1288.47580	1036.00540	822.55707	-1394.62555	1024.12560	659.01527	-1172.88681	1450.78598	619.33758	-1268.23441	1506.60629	674.91165	-1071.83693	1622.93182	627.79854	-1240.76256	1622.22168	722.92183	-1074.29733	1403.74603	804.27719	-889.83040	1229.78981	771.96915	-916.66847	1163.01781	757.85004	-903.31078	1224.02145	694.51172	-690.09125	1138.17299	608.41022	-661.27441	1160.42786	637.25391	-667.89711	1203.80394	618.93719	-1386.80588	1397.17499	520.21942	-1400.69443	1079.60831	557.79156	-1435.69000	1111.81824	472.79579	-1471.56891	1091.70082	543.79040	-1483.21442	883.52524	453.32840	-1457.99042	893.80157	420.79422	-1419.81964	882.11792	441.86111	-1137.22778	882.82120	836.47743	-1071.15051	417.08179	712.90024	-1109.24240	437.16866	791.62819	-1166.20407	428.42587	689.97040	-1332.23358	417.70504	487.79865	-1404.06281	467.90833	477.41970	-1354.98383	448.36384	592.15614	-1093.08434	156.90234	720.56778	-1171.80382	151.77187	699.77318	-1150.64232	142.97331	767.94586	-1533.83926	219.69639	531.13300	-1524.69437	220.85552	596.92982	-1463.53699	196.72329	562.57103	-1256.63841	1622.22366	594.03797	-1290.25970	927.16431	556.74732	363.87863	1050.59792	336.39946	339.61712	1054.17336	574.86938	93.40507	1460.36255	405.33882	202.28638	1537.98157	355.52788	3.24352	1697.31766	341.43116	146.15085	1628.63556	267.09854	149.32966	1678.32397	418.45222	138.73731	1418.91647	199.98003	-51.46907	1200.17044	215.90946	-19.27005	1173.13049	287.26048	-68.59562	1251.42845	265.81665	-276.59027	1156.85989	363.26427	-287.35294	1207.48230	356.55163	-268.05405	1226.58890	393.09090	207.42962	1486.75339	617.89528	349.04152	1195.98656	700.83374	267.36446	1254.46701	645.47592	270.78487	1234.78333	741.10222	101.00321	1171.11610	598.63140	85.49569	1221.10573	609.40083	112.33144	1240.90561	575.70293	280.95112	875.59280	252.82074	186.50141	879.64973	644.05136	240.29871	428.95954	315.79800	346.66431	480.66334	326.60027	286.73977	450.35847	421.33633	9.65336	454.40937	501.93390	103.33395	463.51837	448.09109	93.62470	465.28240	564.49841	338.81855	142.40100	343.56850	364.65130	150.66980	410.53925	405.52593	150.28397	342.00382	31.92209	132.69621	510.87040	101.62534	133.16175	443.95790	28.66719	144.12013	440.17006	129.43563	992.41241	563.62801	122.07617	975.73311	336.30165 
